<svg data-v-423bf9ae="" xmlns="http://www.w3.org/2000/svg" viewBox="0 0 428 112" class="iconLeft"><!----><!----><!----><g data-v-423bf9ae="" id="37caf31a-0d11-444d-a796-2ffcd7d8ddf9" fill="#000000" transform="matrix(3.7546935081481934,0,0,3.7546935081481934,128.8958282470703,9.63565731048584)"><path d="M5.77 10.75L5.77 10.75L4.42 10.74Q3.81 10.74 3.49 10.75L3.49 10.75Q3.28 12.61 3.26 13.94L3.26 13.94Q6.55 13.94 8.15 13.41L8.15 13.41Q8.02 14.45 7.52 15.02Q7.01 15.60 6.26 15.60L6.26 15.60Q6.03 15.60 5.00 15.48Q3.98 15.36 2.83 15.36Q1.68 15.36 0.59 15.60L0.59 15.60Q0.74 14.94 1.26 14.52L1.26 14.52L1.26 14.46Q1.26 13.71 1.65 11.02L1.65 11.02Q1.30 11.14 1.05 11.24L1.05 11.24Q1.02 10.93 1.02 10.78L1.02 10.78Q1.02 9.84 1.85 9.59L1.85 9.59Q2.10 7.74 2.18 6.26L2.18 6.26Q1.67 6.23 1.53 6.02Q1.39 5.81 1.39 5.19L1.39 5.19Q1.43 4.56 1.50 4.37L1.50 4.37Q3.07 4.58 4.96 4.58Q6.86 4.58 8.62 4.24L8.62 4.24Q8.43 5.71 6.83 6.01L6.83 6.01Q5.89 6.19 4.05 6.24L4.05 6.24Q4.03 6.40 3.64 9.49L3.64 9.49Q4.48 9.52 4.80 9.52L4.80 9.52Q6.13 9.52 6.69 9.06L6.69 9.06Q6.72 9.34 6.72 9.48L6.72 9.48Q6.72 10.75 5.77 10.75ZM13.68 9.00L13.68 9.00L10.88 9.27Q10.32 9.27 10.10 9.04Q9.88 8.81 9.88 8.33Q9.88 7.85 10.00 7.43L10.00 7.43Q11.38 7.70 12.60 7.70Q13.82 7.70 14.53 7.64L14.53 7.64Q14.81 7.11 14.92 6.69L14.92 6.69Q15.76 7.46 15.76 8.03Q15.76 8.60 15.11 9.40Q14.46 10.21 13.24 11.52Q12.01 12.84 11.26 13.83L11.26 13.83Q12.46 13.89 13.39 13.89Q14.32 13.89 15.27 13.72L15.27 13.72Q15.34 14.17 15.34 14.62Q15.34 15.08 15.09 15.34Q14.84 15.60 14.21 15.60L14.21 15.60Q13.94 15.60 12.65 15.45Q11.35 15.30 10.41 15.30Q9.46 15.30 8.55 15.61L8.55 15.61Q8.79 14.25 9.59 13.96L9.59 13.96Q12.14 11.23 13.68 9.00ZM22.85 8.32L22.85 8.32Q22.85 8.81 22.43 9.64Q22.01 10.47 21.41 11.48Q20.80 12.49 20.20 13.63Q19.60 14.77 19.18 16.21Q18.76 17.64 18.76 19.01L18.76 19.01Q18.76 19.64 18.86 20.22L18.86 20.22Q17.72 20.01 17.32 19.59Q16.91 19.18 16.91 18.62L16.91 18.62Q16.91 17.85 18.03 15.58L18.03 15.58Q17.82 14.71 17.51 12.86Q17.21 11.00 16.89 9.63Q16.58 8.26 16.17 7.59L16.17 7.59Q16.94 7.22 17.40 7.22Q17.86 7.22 18.10 7.43Q18.34 7.64 18.50 8.27Q18.66 8.89 18.73 9.30L18.73 9.30Q18.93 10.64 18.93 10.79Q18.93 10.95 19.04 12.05Q19.15 13.15 19.21 13.50L19.21 13.50Q21.70 8.67 21.70 7.04L21.70 7.04Q22.85 7.63 22.85 8.32ZM28.76 10.75L28.76 10.75L27.41 10.74Q26.80 10.74 26.47 10.75L26.47 10.75Q26.26 12.61 26.25 13.94L26.25 13.94Q29.54 13.94 31.14 13.41L31.14 13.41Q31.01 14.45 30.51 15.02Q30.00 15.60 29.25 15.60L29.25 15.60Q29.02 15.60 27.99 15.48Q26.96 15.36 25.82 15.36Q24.67 15.36 23.58 15.60L23.58 15.60Q23.73 14.94 24.25 14.52L24.25 14.52L24.25 14.46Q24.25 13.71 24.64 11.02L24.64 11.02Q24.29 11.14 24.04 11.24L24.04 11.24Q24.01 10.93 24.01 10.78L24.01 10.78Q24.01 9.84 24.84 9.59L24.84 9.59Q25.09 7.74 25.17 6.26L25.17 6.26Q24.65 6.23 24.51 6.02Q24.37 5.81 24.37 5.19L24.37 5.19Q24.42 4.56 24.49 4.37L24.49 4.37Q26.05 4.58 27.95 4.58Q29.85 4.58 31.61 4.24L31.61 4.24Q31.42 5.71 29.82 6.01L29.82 6.01Q28.88 6.19 27.03 6.24L27.03 6.24Q27.02 6.40 26.63 9.49L26.63 9.49Q27.47 9.52 27.79 9.52L27.79 9.52Q29.12 9.52 29.68 9.06L29.68 9.06Q29.71 9.34 29.71 9.48L29.71 9.48Q29.71 10.75 28.76 10.75ZM38.14 15.85L38.14 15.85Q37.16 15.85 36.45 15.00Q35.74 14.15 35.13 12.63L35.13 12.63Q33.89 14.14 33.33 16.02L33.33 16.02Q32.28 15.15 32.28 14.48L32.28 14.48Q32.28 13.99 32.89 13.27Q33.50 12.54 34.68 11.45L34.68 11.45Q33.78 9.03 33.45 8.45Q33.12 7.87 32.91 7.59L32.91 7.59Q33.61 7.22 34.19 7.22L34.19 7.22Q34.65 7.22 34.94 7.62L34.94 7.62Q35.29 8.05 35.48 8.55Q35.66 9.04 35.75 9.33Q35.84 9.62 36.02 10.18L36.02 10.18Q38.02 8.22 38.23 7.10L38.23 7.10Q39.06 7.80 39.06 8.32L39.06 8.32Q39.06 8.68 38.81 9.06Q38.56 9.44 38.28 9.70Q38.00 9.95 37.36 10.48Q36.72 11.00 36.39 11.31L36.39 11.31Q36.88 12.67 37.70 13.96Q38.53 15.25 39.03 15.72L39.03 15.72Q38.53 15.85 38.14 15.85ZM44.22 8.36Q45.11 7.69 45.98 7.69Q46.84 7.69 47.41 8.38Q47.98 9.07 47.98 10.39L47.98 10.39Q47.98 12.49 46.83 13.96Q45.68 15.43 44.07 15.43L44.07 15.43Q43.50 15.43 42.91 15.20L42.91 15.20Q44.28 14.88 45.09 13.43Q45.91 11.97 45.91 10.53L45.91 10.53Q45.91 9.86 45.66 9.44Q45.42 9.02 44.97 9.02L44.97 9.02Q44.11 9.02 43.46 10.05Q42.80 11.09 42.45 12.89Q42.10 14.69 42.10 16.64Q42.10 18.59 42.38 20.03L42.38 20.03Q41.23 19.99 40.68 19.66Q40.12 19.33 40.12 18.41L40.12 18.41Q40.12 18.07 40.55 14.86Q40.98 11.65 40.98 9.91Q40.98 8.18 40.77 6.99L40.77 6.99Q41.89 7.27 42.31 8.02Q42.74 8.78 42.74 10.23L42.74 10.23Q43.33 9.03 44.22 8.36ZM52.75 11.98L52.75 11.98Q52.08 11.98 51.44 11.83L51.44 11.83Q51.42 11.97 51.42 12.26L51.42 12.26Q51.42 13.43 51.86 14.01Q52.29 14.60 52.89 14.60Q53.49 14.60 54.04 14.24Q54.59 13.87 54.99 13.23L54.99 13.23Q55.50 13.34 55.50 13.75L55.50 13.75Q54.26 15.64 52.32 15.64L52.32 15.64Q51.14 15.64 50.26 14.74Q49.38 13.83 49.38 12.22L49.38 12.22Q49.38 11.02 49.84 9.93Q50.30 8.85 51.31 8.10Q52.32 7.35 53.54 7.35Q54.77 7.35 55.34 7.91Q55.92 8.47 55.92 9.38L55.92 9.38Q55.92 10.70 55.00 11.34Q54.08 11.98 52.75 11.98ZM53.34 8.22L53.34 8.22Q52.63 8.22 52.14 9.10Q51.65 9.98 51.49 11.24L51.49 11.24L51.70 11.24Q52.92 11.24 53.50 10.61Q54.08 9.98 54.08 9.10L54.08 9.10Q54.08 8.74 53.89 8.48Q53.70 8.22 53.34 8.22ZM62.79 7.35Q63.62 7.35 63.97 7.86Q64.33 8.37 64.33 9.25Q64.33 10.12 64.06 11.70Q63.78 13.29 63.78 14.01Q63.78 14.73 63.97 15.06Q64.15 15.39 64.58 15.62L64.58 15.62Q64.40 15.64 64.06 15.64L64.06 15.64Q62.89 15.64 62.39 15.27Q61.89 14.91 61.89 14L61.89 14Q61.89 13.48 62.17 11.98Q62.45 10.47 62.45 9.73L62.45 9.73Q62.45 8.81 61.89 8.81L61.89 8.81Q61.57 8.81 61.17 9.18Q60.76 9.56 60.38 10.21Q60.00 10.86 59.75 11.89Q59.50 12.91 59.50 13.92Q59.50 14.94 59.58 15.43L59.58 15.43Q59.14 15.46 59.00 15.46L59.00 15.46Q58.20 15.46 57.85 15.18Q57.50 14.90 57.50 14.25L57.50 14.25Q57.50 13.97 57.79 12.10Q58.09 10.22 58.09 9.11Q58.09 7.99 57.85 7.06L57.85 7.06Q58.87 7.38 59.28 7.97Q59.68 8.57 59.68 9.33Q59.68 10.09 59.51 11.10L59.51 11.10Q59.98 9.53 60.97 8.44Q61.96 7.35 62.79 7.35ZM69.26 8.18Q68.87 8.18 68.56 8.44Q68.25 8.69 68.25 9.17Q68.25 9.65 68.58 10.07Q68.91 10.49 69.38 10.80Q69.86 11.12 70.34 11.45Q70.83 11.77 71.19 12.26Q71.55 12.74 71.60 13.33L71.60 13.33Q71.60 14.34 70.73 15.02Q69.86 15.71 68.57 15.71Q67.28 15.71 66.55 15.19Q65.81 14.67 65.81 14Q65.81 13.33 66.23 12.92Q66.64 12.50 67.26 12.50L67.26 12.50Q67.58 12.50 67.86 12.61L67.86 12.61Q67.41 13.09 67.41 13.62Q67.41 14.15 67.70 14.48Q68.00 14.80 68.50 14.80Q69.01 14.80 69.35 14.54Q69.69 14.28 69.69 13.87Q69.69 13.45 69.45 13.13Q69.22 12.81 68.86 12.57Q68.50 12.32 68.08 12.01Q67.66 11.70 67.30 11.39Q66.95 11.07 66.71 10.59Q66.47 10.11 66.47 9.53L66.47 9.53Q66.47 8.54 67.29 7.90Q68.11 7.27 69.33 7.27Q70.56 7.27 71.13 7.74Q71.69 8.22 71.69 8.86Q71.69 9.49 71.30 9.94Q70.90 10.39 70.27 10.39L70.27 10.39Q69.96 10.39 69.57 10.26L69.57 10.26Q69.87 10.00 70.04 9.65Q70.21 9.31 70.21 8.97Q70.21 8.64 69.93 8.41Q69.65 8.18 69.26 8.18ZM76.38 11.98L76.38 11.98Q75.71 11.98 75.07 11.83L75.07 11.83Q75.05 11.97 75.05 12.26L75.05 12.26Q75.05 13.43 75.49 14.01Q75.92 14.60 76.52 14.60Q77.13 14.60 77.67 14.24Q78.22 13.87 78.62 13.23L78.62 13.23Q79.13 13.34 79.13 13.75L79.13 13.75Q77.90 15.64 75.95 15.64L75.95 15.64Q74.77 15.64 73.89 14.74Q73.01 13.83 73.01 12.22L73.01 12.22Q73.01 11.02 73.47 9.93Q73.93 8.85 74.94 8.10Q75.95 7.35 77.17 7.35Q78.40 7.35 78.97 7.91Q79.55 8.47 79.55 9.38L79.55 9.38Q79.55 10.70 78.63 11.34Q77.71 11.98 76.38 11.98ZM76.97 8.22L76.97 8.22Q76.26 8.22 75.77 9.10Q75.28 9.98 75.12 11.24L75.12 11.24L75.33 11.24Q76.55 11.24 77.13 10.61Q77.71 9.98 77.71 9.10L77.71 9.10Q77.71 8.74 77.53 8.48Q77.34 8.22 76.97 8.22Z"></path></g><!----><g data-v-423bf9ae="" id="cbc600ea-72bb-473f-8499-e9c6a4b98044" transform="matrix(1.1111111640930176,0,0,1.1111111640930176,0.4444417953491211,0.4444417953491211)" stroke="none" fill="#131313"><path d="M19.207 45.567v-4.28a.781.781 0 011.563 0v4.28a.78.78 0 11-1.563 0zm-6.587 4.784a.78.78 0 00-.781.781v4.279a.78.78 0 101.562 0v-4.279a.78.78 0 00-.781-.781zm11.318-4.002c.432 0 .782-.35.782-.781v-4.28a.781.781 0 00-1.563 0v4.28c0 .431.35.781.781.781zm15.619 0c.431 0 .781-.35.781-.781v-4.28a.78.78 0 10-1.563 0v4.28c0 .431.35.781.782.781zm-10.983 0a.78.78 0 00.781-.781v-4.28a.78.78 0 10-1.562 0v4.28c0 .431.35.781.781.781zm4.978 0c.432 0 .782-.35.782-.781v-4.28a.781.781 0 00-1.563 0v4.28c0 .431.35.781.781.781zm9.62 4.002a.78.78 0 00-.781.781v4.279a.78.78 0 101.563 0v-4.279a.781.781 0 00-.782-.781zm-10.983 0a.78.78 0 00-.781.781v4.279a.78.78 0 101.562 0v-4.279a.78.78 0 00-.781-.781zm6.005 0a.781.781 0 00-.781.781v4.279a.78.78 0 101.563 0v-4.279a.782.782 0 00-.782-.781zm-21.623 0a.782.782 0 00-.782.781v4.279a.781.781 0 001.563 0v-4.279a.78.78 0 00-.781-.781zm9.613 0a.78.78 0 00-.781.781v4.279a.78.78 0 101.563 0v-4.279a.782.782 0 00-.782-.781zm19.378-4.002a.78.78 0 00.781-.781v-4.28a.78.78 0 10-1.563 0v4.28c0 .431.35.781.782.781zm-24.356 4.002a.782.782 0 00-.782.781v4.279a.781.781 0 001.563 0v-4.279a.78.78 0 00-.781-.781zm6.206-19.688a.781.781 0 00-.781.781v4.28a.78.78 0 101.563 0v-4.28a.784.784 0 00-.782-.781zm6.005 0a.782.782 0 00-.782.781v4.28a.781.781 0 001.563 0v-4.28c0-.43-.35-.781-.781-.781zm-10.983 0a.781.781 0 00-.781.781v4.28a.78.78 0 101.562 0v-4.28a.781.781 0 00-.781-.781zM50.54 46.349c.432 0 .782-.35.782-.781v-4.28a.781.781 0 00-1.563 0v4.28a.78.78 0 00.781.781zM13.848 30.663a.782.782 0 00-.782.781v4.28a.781.781 0 001.563 0v-4.28c0-.43-.35-.781-.781-.781zm3.951 0a.781.781 0 00-.781.781v4.28a.78.78 0 101.562 0v-4.28c0-.43-.35-.781-.781-.781zm37.377 15.686a.78.78 0 00.781-.781v-4.28a.78.78 0 10-1.562 0v4.28a.78.78 0 00.781.781zM44.4 30.663a.781.781 0 00-.781.781v4.28a.78.78 0 101.563 0v-4.28c0-.43-.35-.781-.782-.781zm14.726 15.686a.78.78 0 00.781-.781v-4.28a.78.78 0 10-1.562 0v4.28a.78.78 0 00.781.781zm-6.14-15.686a.781.781 0 00-.781.781v4.28a.78.78 0 101.562 0v-4.28a.78.78 0 00-.781-.781zm-3.95 0a.782.782 0 00-.782.781v4.28a.781.781 0 001.563 0v-4.28c0-.43-.35-.781-.781-.781zm-9.614 0a.782.782 0 00-.781.781v4.28a.78.78 0 101.563 0v-4.28c0-.43-.35-.781-.782-.781zm2.281 45.254c.431 0 .781-.35.781-.781v-4.28a.78.78 0 10-1.563 0v4.28c0 .431.35.781.782.781zm-6.005 0c.431 0 .781-.35.781-.781v-4.28a.78.78 0 10-1.563 0v4.28c0 .431.35.781.782.781zm-11.324-9.883c.432 0 .782-.35.782-.781v-4.28a.781.781 0 00-1.563 0v4.28a.78.78 0 00.781.781zm26.942 9.883a.78.78 0 00.781-.781v-4.28a.78.78 0 10-1.563 0v4.28c.001.431.35.781.782.781zm3.951 0a.78.78 0 00.781-.781v-4.28a.78.78 0 10-1.562 0v4.28a.78.78 0 00.781.781zm-8.586 0c.431 0 .781-.35.781-.781v-4.28a.78.78 0 10-1.563 0v4.28c0 .431.35.781.782.781zM100 19.348v61.306C100 91.338 91.338 100 80.652 100H19.348C8.662 100 0 91.338 0 80.653V19.348C0 8.662 8.662 0 19.348 0h61.305C91.338 0 100 8.662 100 19.348zM10.853 37.352h44.72v-7.944h-44.72v7.944zm6.14 1.897v7.944h44.721v-7.944H16.993zM9.625 57.038h44.721v-7.946H9.625v7.946zm11.754 1.897v7.944H66.1v-7.944H21.379zm36.475 9.883H13.133v7.943h44.721v-7.943zm32.39-19.428c0-14.843-12.032-26.874-26.874-26.874a26.746 26.746 0 00-15.679 5.054H57.411v9.843h6.141v11.619h-7.369v8.067H67.938v11.619H59.693v7.29c1.203.164 2.43.257 3.678.257 14.841-.001 26.873-12.034 26.873-26.875zM29.692 75.917c.432 0 .782-.35.782-.781v-4.28a.781.781 0 00-1.563 0v4.28c0 .431.35.781.781.781zm-13.564 0c.432 0 .782-.35.782-.781v-4.28a.781.781 0 00-1.563 0v4.28c0 .431.35.781.781.781zm31.679-25.566a.782.782 0 00-.782.781v4.279a.781.781 0 001.563 0v-4.279a.78.78 0 00-.781-.781zM20.079 75.917a.78.78 0 00.781-.781v-4.28a.78.78 0 10-1.562 0v4.28a.78.78 0 00.781.781zm4.635 0c.432 0 .782-.35.782-.781v-4.28a.781.781 0 00-1.563 0v4.28c0 .431.35.781.781.781zm30.212-9.883a.78.78 0 00.781-.781v-4.28a.78.78 0 10-1.562 0v4.28a.78.78 0 00.781.781zm-26.602 0a.78.78 0 00.781-.781v-4.28a.78.78 0 10-1.562 0v4.28c0 .432.35.781.781.781zm21.623 0c.432 0 .782-.35.782-.781v-4.28a.781.781 0 00-1.563 0v4.28c0 .432.35.781.781.781zm13.565 0a.78.78 0 00.781-.781v-4.28a.78.78 0 10-1.562 0v4.28a.78.78 0 00.781.781zM51.758 50.351a.78.78 0 00-.781.781v4.279a.78.78 0 101.562 0v-4.279a.78.78 0 00-.781-.781zm7.803 15.683c.433 0 .782-.35.782-.781v-4.28a.781.781 0 00-1.563 0v4.28a.78.78 0 00.781.781zm-15.619 0c.432 0 .782-.35.782-.781v-4.28a.781.781 0 00-1.563 0v4.28c0 .432.35.781.781.781zm-10.983 0c.432 0 .782-.35.782-.781v-4.28a.781.781 0 00-1.563 0v4.28c0 .432.35.781.781.781zm4.979 0c.431 0 .781-.35.781-.781v-4.28a.78.78 0 10-1.563 0v4.28c0 .432.35.781.782.781z"></path></g><!----></svg>